<svg width="242" height="47" viewBox="0 0 242 47" fill="none" xmlns="http://www.w3.org/2000/svg">
<path d="M21.6393 46.576C19.7619 46.576 18.3113 46.064 17.2873 45.04C16.2633 43.9733 15.7513 42.5013 15.7513 40.624V10.48H5.70325C4.12458 10.48 2.90858 10.0747 2.05525 9.264C1.24458 8.41066 0.83925 7.216 0.83925 5.68C0.83925 4.10133 1.24458 2.90666 2.05525 2.096C2.90858 1.28533 4.12458 0.879997 5.70325 0.879997H37.5753C39.1539 0.879997 40.3486 1.28533 41.1593 2.096C42.0126 2.90666 42.4393 4.10133 42.4393 5.68C42.4393 7.216 42.0126 8.41066 41.1593 9.264C40.3486 10.0747 39.1539 10.48 37.5753 10.48H27.5273V40.624C27.5273 42.5013 27.0366 43.9733 26.0553 45.04C25.0739 46.064 23.6019 46.576 21.6393 46.576ZM52.4588 46C50.4534 46 48.9174 45.488 47.8508 44.464C46.8268 43.3973 46.3148 41.8827 46.3148 39.92V6.96C46.3148 4.99733 46.8268 3.504 47.8508 2.48C48.9174 1.41333 50.4534 0.879997 52.4588 0.879997H74.1548C75.6908 0.879997 76.8428 1.264 77.6108 2.032C78.3788 2.8 78.7628 3.90933 78.7628 5.36C78.7628 6.85333 78.3788 8.00533 77.6108 8.816C76.8428 9.584 75.6908 9.968 74.1548 9.968H57.5788V18.544H72.7468C74.2401 18.544 75.3708 18.928 76.1388 19.696C76.9494 20.464 77.3548 21.5947 77.3548 23.088C77.3548 24.5813 76.9494 25.712 76.1388 26.48C75.3708 27.248 74.2401 27.632 72.7468 27.632H57.5788V36.912H74.1548C75.6908 36.912 76.8428 37.3173 77.6108 38.128C78.3788 38.896 78.7628 40.0053 78.7628 41.456C78.7628 42.9493 78.3788 44.08 77.6108 44.848C76.8428 45.616 75.6908 46 74.1548 46H52.4588ZM102.452 46.576C100.574 46.576 99.1238 46.064 98.0998 45.04C97.0758 43.9733 96.5638 42.5013 96.5638 40.624V10.48H86.5158C84.9371 10.48 83.7211 10.0747 82.8678 9.264C82.0571 8.41066 81.6517 7.216 81.6517 5.68C81.6517 4.10133 82.0571 2.90666 82.8678 2.096C83.7211 1.28533 84.9371 0.879997 86.5158 0.879997H118.388C119.966 0.879997 121.161 1.28533 121.972 2.096C122.825 2.90666 123.252 4.10133 123.252 5.68C123.252 7.216 122.825 8.41066 121.972 9.264C121.161 10.0747 119.966 10.48 118.388 10.48H108.34V40.624C108.34 42.5013 107.849 43.9733 106.868 45.04C105.886 46.064 104.414 46.576 102.452 46.576ZM133.079 46C131.202 46 129.73 45.488 128.663 44.464C127.639 43.3973 127.127 41.9253 127.127 40.048V6.768C127.127 4.848 127.639 3.376 128.663 2.352C129.687 1.328 131.138 0.815998 133.015 0.815998C134.935 0.815998 136.386 1.328 137.367 2.352C138.391 3.376 138.903 4.848 138.903 6.768V36.208H154.519C156.141 36.208 157.378 36.6347 158.231 37.488C159.127 38.2987 159.575 39.4933 159.575 41.072C159.575 42.6507 159.127 43.8667 158.231 44.72C157.378 45.5733 156.141 46 154.519 46H133.079ZM170.709 46C168.703 46 167.167 45.488 166.101 44.464C165.077 43.3973 164.565 41.8827 164.565 39.92V6.96C164.565 4.99733 165.077 3.504 166.101 2.48C167.167 1.41333 168.703 0.879997 170.709 0.879997H192.405C193.941 0.879997 195.093 1.264 195.861 2.032C196.629 2.8 197.013 3.90933 197.013 5.36C197.013 6.85333 196.629 8.00533 195.861 8.816C195.093 9.584 193.941 9.968 192.405 9.968H175.829V18.544H190.997C192.49 18.544 193.621 18.928 194.389 19.696C195.199 20.464 195.605 21.5947 195.605 23.088C195.605 24.5813 195.199 25.712 194.389 26.48C193.621 27.248 192.49 27.632 190.997 27.632H175.829V36.912H192.405C193.941 36.912 195.093 37.3173 195.861 38.128C196.629 38.896 197.013 40.0053 197.013 41.456C197.013 42.9493 196.629 44.08 195.861 44.848C195.093 45.616 193.941 46 192.405 46H170.709ZM209.765 46.576C207.888 46.576 206.437 46.064 205.413 45.04C204.389 43.9733 203.877 42.5013 203.877 40.624V6.832C203.877 4.912 204.389 3.44 205.413 2.416C206.48 1.392 207.952 0.879997 209.829 0.879997H225.573C230.693 0.879997 234.64 2.13866 237.413 4.656C240.229 7.13067 241.637 10.5867 241.637 15.024C241.637 17.8827 240.997 20.3787 239.717 22.512C238.48 24.6027 236.667 26.224 234.277 27.376C231.931 28.4853 229.029 29.04 225.573 29.04L226.085 27.888H229.157C230.992 27.888 232.613 28.336 234.021 29.232C235.429 30.0853 236.603 31.408 237.541 33.2L240.741 38.96C241.424 40.1973 241.744 41.4133 241.701 42.608C241.659 43.76 241.189 44.72 240.293 45.488C239.44 46.2133 238.181 46.576 236.517 46.576C234.853 46.576 233.488 46.2347 232.421 45.552C231.397 44.8693 230.48 43.8027 229.669 42.352L223.845 31.664C223.333 30.7253 222.672 30.0853 221.861 29.744C221.093 29.36 220.197 29.168 219.173 29.168H215.653V40.624C215.653 42.5013 215.163 43.9733 214.181 45.04C213.2 46.064 211.728 46.576 209.765 46.576ZM215.653 20.848H223.461C225.723 20.848 227.451 20.4 228.645 19.504C229.84 18.608 230.437 17.2213 230.437 15.344C230.437 13.552 229.84 12.208 228.645 11.312C227.451 10.3733 225.723 9.904 223.461 9.904H215.653V20.848Z" fill="#F4F4F4"/>
</svg>
